<svg width="322" height="190" viewBox="0 0 322 190" fill="none" xmlns="http://www.w3.org/2000/svg">
<path d="M178.251 0C203.008 0 224.876 12.3861 238.017 31.3086C245.419 28.0241 253.613 26.1992 262.233 26.1992C295.242 26.1994 322.001 52.9588 322.001 85.9678C322.001 106.995 311.141 125.484 294.726 136.137C289.754 145.516 282.361 153.414 273.376 158.995C263.606 175.982 245.729 187.714 225.025 188.908L225.037 189.008H221.839C221.736 189.008 221.633 189.01 221.53 189.01C221.427 189.01 221.324 189.008 221.222 189.008H137.861C137.757 189.008 137.652 189.01 137.548 189.01C137.443 189.01 137.339 189.008 137.234 189.008H52.9736C52.8604 189.009 52.7472 189.01 52.6338 189.01C23.5652 189.01 0.000169075 165.445 0 136.377C5.68235e-05 116.836 10.6492 99.7811 26.4609 90.7012C30.9664 82.2054 37.7306 75.091 45.9531 70.1582C54.4783 52.5842 72.4929 40.4678 93.3369 40.4678C98.2876 40.4678 103.078 41.1537 107.62 42.4316C110.118 40.0378 112.786 37.8205 115.604 35.7998C128.271 14.37 151.585 4.93424e-05 178.251 0Z" fill="url(#paint0_linear_2302_4084)"/>
<path d="M178.251 0C203.008 0 224.876 12.3861 238.017 31.3086C245.419 28.0241 253.613 26.1992 262.233 26.1992C295.242 26.1994 322.001 52.9588 322.001 85.9678C322.001 117.803 297.111 143.824 265.729 145.634L265.74 145.732H262.697C262.543 145.734 262.388 145.735 262.233 145.735C262.079 145.735 261.924 145.734 261.77 145.732H178.878C178.669 145.734 178.46 145.736 178.251 145.736C178.042 145.736 177.833 145.734 177.624 145.732H93.6768C93.5636 145.733 93.4503 145.734 93.3369 145.734C64.2684 145.734 40.7033 122.17 40.7031 93.1016C40.7031 64.0329 64.2682 40.4678 93.3369 40.4678C99.7426 40.4678 105.881 41.6126 111.559 43.708C122.788 17.9791 148.423 5.51933e-05 178.251 0Z" fill="url(#paint1_linear_2302_4084)"/>
<path d="M157.905 22.2236C182.661 22.2236 204.529 34.6089 217.67 53.5303C225.072 50.2466 233.265 48.4219 241.884 48.4219C274.893 48.422 301.651 75.1815 301.651 108.19C301.651 140.026 276.762 166.046 245.38 167.856L245.393 167.961H72.9883V167.958C43.9209 167.957 20.3574 144.393 20.3574 115.325C20.3577 86.2567 43.9227 62.6924 72.9912 62.6924C79.3968 62.6924 85.5351 63.8363 91.2129 65.9316C102.442 40.2028 128.078 22.2237 157.905 22.2236Z" fill="url(#paint2_linear_2302_4084)" fill-opacity="0.6"/>
<path d="M137.548 43.2737C162.305 43.2737 184.174 55.6602 197.314 74.5833C204.717 71.299 212.91 69.4739 221.53 69.4739C254.539 69.4741 281.298 96.2335 281.298 129.242C281.298 161.078 256.407 187.099 225.025 188.908L225.037 189.008H221.839C221.736 189.009 221.633 189.01 221.53 189.01C221.427 189.01 221.324 189.009 221.222 189.008H137.861C137.757 189.008 137.652 189.01 137.548 189.01C137.443 189.01 137.339 189.008 137.234 189.008H52.9736C52.8604 189.009 52.7472 189.01 52.6338 189.01C23.5652 189.01 0.000169075 165.446 0 136.377C0 107.309 23.5651 83.7434 52.6338 83.7434C59.0393 83.7434 65.1777 84.8874 70.8555 86.9827C82.0845 61.2534 107.72 43.2738 137.548 43.2737Z" fill="url(#paint3_linear_2302_4084)" fill-opacity="0.6"/>
<path d="M137.548 43.4189C162.305 43.4189 184.174 55.8061 197.314 74.7295C204.717 71.4452 212.91 69.6201 221.53 69.6201C254.539 69.6203 281.298 96.3797 281.298 129.389C281.298 161.224 256.407 187.245 225.025 189.055L225.037 189.153H221.994C221.84 189.154 221.685 189.156 221.53 189.156C221.376 189.156 221.221 189.154 221.066 189.153H137.861C137.757 189.154 137.652 189.155 137.548 189.155C137.443 189.155 137.339 189.154 137.234 189.153L52.6328 189.152C23.5645 189.152 0.000152579 165.589 0 136.521C0 107.452 23.5651 83.8867 52.6338 83.8867C59.0394 83.8868 65.1776 85.0316 70.8555 87.127C82.0847 61.3981 107.72 43.419 137.548 43.4189Z" fill="#0B6100" fill-opacity="0.2"/>
<defs>
<linearGradient id="paint0_linear_2302_4084" x1="4.14052" y1="116.989" x2="281.556" y2="116.989" gradientUnits="userSpaceOnUse">
<stop stop-color="#00600A"/>
<stop offset="1" stop-color="#019606"/>
</linearGradient>
<linearGradient id="paint1_linear_2302_4084" x1="47.2531" y1="83.2779" x2="322.118" y2="83.2779" gradientUnits="userSpaceOnUse">
<stop stop-color="#6EF56C"/>
<stop offset="1" stop-color="#DFF0E1"/>
</linearGradient>
<linearGradient id="paint2_linear_2302_4084" x1="20.3574" y1="95.2093" x2="301.768" y2="95.2092" gradientUnits="userSpaceOnUse">
<stop stop-color="#3ADD3F"/>
<stop offset="1" stop-color="#78E66E"/>
</linearGradient>
<linearGradient id="paint3_linear_2302_4084" x1="7.13479" y1="129.359" x2="281.415" y2="129.359" gradientUnits="userSpaceOnUse">
<stop stop-color="#14C72F"/>
<stop offset="1" stop-color="#1BEA08"/>
</linearGradient>
</defs>
</svg>
