<svg width="32" height="36" viewBox="0 0 32 36" fill="none" xmlns="http://www.w3.org/2000/svg">
<path d="M16 4C7.15725 4 0 11.1561 0 20C0 28.8428 7.15606 36 16 36C24.8428 36 32 28.8439 32 20C32 11.1573 24.8439 4 16 4ZM28.0158 13.8333H25.865C25.3977 12.5159 24.2141 11.5355 22.7846 11.3619C22.3191 9.85981 21.7418 8.558 21.0768 7.484C24.1482 8.72944 26.5869 11.0566 28.0158 13.8333ZM10.5264 21.2665C10.5092 20.8446 10.5 20.4214 10.5 20C10.5 18.7423 10.5742 17.5122 10.7175 16.3333H18.7951C19.2178 17.5251 20.2267 18.4409 21.4736 18.7334C21.4908 19.1554 21.5 19.5786 21.5 20C21.5 21.2577 21.4257 22.4878 21.2825 23.6667H13.2049C12.7823 22.4749 11.7733 21.5591 10.5264 21.2665ZM10.9199 24.9167C10.9199 25.6059 10.3592 26.1667 9.66994 26.1667C8.98069 26.1667 8.41994 25.6059 8.41994 24.9167C8.41994 24.2256 8.9845 23.6667 9.66988 23.6667C10.3591 23.6667 10.9199 24.2274 10.9199 24.9167ZM21.0801 15.0833C21.0801 14.3941 21.6408 13.8333 22.3301 13.8333C23.0193 13.8333 23.5801 14.3941 23.5801 15.0833C23.5801 15.7816 23.0087 16.332 22.3321 16.3332C22.3314 16.3332 22.3307 16.3333 22.33 16.3333C22.3299 16.3333 22.3298 16.3333 22.3297 16.3333C21.6406 16.3332 21.0801 15.7725 21.0801 15.0833ZM16 6.5C18.1186 6.5 19.6869 9.89244 20.3354 11.9101C19.6277 12.3566 19.0791 13.0326 18.7951 13.8333H11.1426C11.7284 11.1991 13.4219 6.5 16 6.5ZM10.9231 7.484C9.76594 9.35725 9.02581 11.6596 8.58969 13.8333H3.98419C5.41269 11.0574 7.85094 8.72981 10.9231 7.484ZM2.5 20C2.5 18.7427 2.67125 17.5117 3.00175 16.3333H8.202C8.06887 17.5214 8 18.7501 8 20C8 20.5129 8.01338 21.0283 8.03694 21.5414C7.15506 21.9699 6.46569 22.7341 6.13494 23.6666H3.00175C2.67125 22.4883 2.5 21.2573 2.5 20ZM3.98419 26.1667H6.135C6.60225 27.4841 7.78587 28.4645 9.21537 28.6381C9.68087 30.1402 10.2582 31.442 10.9232 32.516C7.85181 31.2706 5.41313 28.9434 3.98419 26.1667ZM16 33.5C13.8813 33.5 12.3131 30.1075 11.6646 28.0899C12.3723 27.6434 12.9209 26.9674 13.2049 26.1667H20.8574C20.2716 28.8009 18.5781 33.5 16 33.5ZM21.0769 32.516C22.2341 30.6427 22.9741 28.3404 23.4103 26.1667H28.0158C26.5873 28.9426 24.1491 31.2702 21.0769 32.516ZM23.798 23.6667C23.9311 22.4786 24 21.2499 24 20C24 19.4871 23.9866 18.9717 23.9631 18.4586C24.8449 18.0301 25.5343 17.2659 25.8651 16.3334H28.9983C29.3287 17.5118 29.5 18.7427 29.5 20C29.5 21.2573 29.3287 22.4883 28.9982 23.6667H23.798Z" fill="#498167"/>
</svg>
