<svg width="32" height="36" viewBox="0 0 32 36" fill="none" xmlns="http://www.w3.org/2000/svg">
<path d="M30.7483 13.9072C30.748 13.9072 30.7478 13.9072 30.7476 13.9072H25.9983C25.3068 13.9072 24.7458 14.4668 24.7458 15.1572C24.7458 15.8474 25.3068 16.4072 25.9983 16.4072H27.7162L21.4384 22.6501V20.7759C21.4384 18.1619 20.0541 15.865 17.979 14.5759C19.2909 13.4763 20.1262 11.8284 20.1262 9.98876C20.1262 6.68652 17.4345 4 14.1258 4C10.817 4 8.12527 6.68652 8.12527 9.98876C8.12527 11.8284 8.96064 13.4763 10.2725 14.5759C8.19768 15.865 6.81338 18.1621 6.81338 20.7759V27.4553L0.368428 33.8645C-0.121543 34.3518 -0.12301 35.1433 0.365248 35.6323C0.854484 36.1223 1.64754 36.1218 2.13653 35.6355C2.89215 34.884 9.84567 27.969 11.0455 26.7759L15.058 30.7661C15.5467 31.2519 16.3373 31.2522 16.8261 30.7661L29.4951 18.1672V19.896C29.4951 20.5864 30.0558 21.146 30.7476 21.146C31.4393 21.146 32 20.5864 32 19.896V15.1572C32 14.4722 31.4428 13.9077 30.7483 13.9072ZM14.1258 6.5C16.0533 6.5 17.6213 8.06494 17.6213 9.98876C17.6213 11.9126 16.0533 13.4775 14.1258 13.4775C12.1982 13.4775 10.6302 11.9126 10.6302 9.98876C10.6302 8.06494 12.1984 6.5 14.1258 6.5ZM18.9335 25.1413L15.942 28.1159L11.9296 24.1257C11.4408 23.6396 10.6505 23.6396 10.1615 24.1257L9.31827 24.9646V20.7759C9.31827 18.1304 11.4748 15.9778 14.1258 15.9778C16.7767 15.9778 18.9335 18.1304 18.9335 20.7759V25.1413Z" fill="#498167"/>
</svg>
