<svg width="32" height="36" viewBox="0 0 32 36" fill="none" xmlns="http://www.w3.org/2000/svg">
<path d="M8.49995 14H9.74995V14.4399C9.74995 15.1303 10.3096 15.6899 11 15.6899C11.6903 15.6899 12.25 15.1303 12.25 14.4399V12.75C12.25 12.214 11.9126 11.7568 11.4386 11.5791L15.9999 7.01776L20.5613 11.5791C20.0873 11.7568 19.7499 12.214 19.7499 12.75V19.4399C19.7499 20.1303 20.3096 20.6899 20.9999 20.6899C21.6903 20.6899 22.2499 20.1303 22.2499 19.4399V14H23.4999C24.0055 14 24.4613 13.6954 24.6548 13.2284C24.8483 12.7613 24.7414 12.2236 24.3839 11.8661L16.8839 4.36614C16.3957 3.87795 15.6043 3.87795 15.1161 4.36614L7.61614 11.8661C7.25864 12.2236 7.15171 12.7613 7.34521 13.2284C7.53858 13.6954 7.99439 14 8.49995 14Z" fill="#498167"/>
<path d="M31.7102 29.4498L25.4602 21.9498C25.2227 21.6648 24.8709 21.5001 24.5 21.5001C24.1291 21.5001 23.7772 21.6648 23.5397 21.9498L17.2897 29.4498C16.9792 29.8224 16.9123 30.341 17.118 30.7802C17.3237 31.2194 17.765 31.5 18.25 31.5H19.5V33.5H12.5V26.5H13.75C14.235 26.5 14.6762 26.2194 14.882 25.7802C15.0877 25.3409 15.0208 24.8224 14.7102 24.4497L8.46025 16.9497C8.22275 16.6647 7.87093 16.5 7.5 16.5C7.12906 16.5 6.77725 16.6647 6.53975 16.9497L0.289748 24.4497C-0.0207519 24.8224 -0.0876894 25.3409 0.117998 25.7802C0.323748 26.2194 0.764998 26.5 1.25 26.5H2.5V34.75C2.5 35.4404 3.05962 36 3.75 36H28.25C28.9404 36 29.5 35.4404 29.5 34.75V31.5H30.75C31.235 31.5 31.6762 31.2194 31.882 30.7802C32.0877 30.341 32.0208 29.8224 31.7102 29.4498ZM3.91031 24.0102L7.5 19.7026L11.0897 24.0102C10.4751 24.0889 10 24.6139 10 25.25V33.5H5V25.25C5 24.6139 4.525 24.0889 3.91031 24.0102ZM27 30.25V33.5H22V30.25C22 29.6139 21.5249 29.0889 20.9103 29.0102L24.5 24.7026L28.0897 29.0102C27.4751 29.0889 27 29.6139 27 30.25Z" fill="#498167"/>
</svg>
