<svg width="24" height="24" viewBox="0 0 24 24" fill="none" xmlns="http://www.w3.org/2000/svg">
<g clip-path="url(#clip0_2302_3523)">
<path d="M4.84873 18.6194C4.43816 18.8009 3.98469 18.9026 3.50764 18.9026C3.03083 18.9026 2.57745 18.801 2.16702 18.6196C0.900641 19.1468 0.0078125 20.3969 0.0078125 21.8519V23.0758H5.89058V22.84C5.89058 21.857 6.1243 20.9278 6.53858 20.1043C6.15528 19.442 5.56123 18.9162 4.84873 18.6194Z" fill="white"/>
<path d="M21.8165 18.6271C21.4102 18.8041 20.9623 18.9029 20.4916 18.9029C20.0084 18.9029 19.5493 18.7985 19.1346 18.6125C18.425 18.9035 17.8322 19.4216 17.4453 20.0754C17.8689 20.9061 18.1086 21.8457 18.1086 22.8404V23.0763H23.9576V21.8524C23.9576 20.4041 23.0734 19.1585 21.8165 18.6271Z" fill="white"/>
<path d="M5.28533 16.3158C5.69182 15.3351 5.22636 14.2106 4.2457 13.8041C3.26504 13.3976 2.14054 13.8631 1.73405 14.8437C1.32757 15.8244 1.79303 16.9489 2.77369 17.3554C3.75434 17.7619 4.87885 17.2964 5.28533 16.3158Z" fill="white"/>
<path d="M20.492 17.4969C21.5533 17.4969 22.4137 16.6366 22.4137 15.5753C22.4137 14.5139 21.5533 13.6536 20.492 13.6536C19.4307 13.6536 18.5703 14.5139 18.5703 15.5753C18.5703 16.6366 19.4307 17.4969 20.492 17.4969Z" fill="white"/>
<path d="M12.0009 17.4971C13.4856 17.4971 14.6892 16.2935 14.6892 14.8087C14.6892 13.324 13.4856 12.1204 12.0009 12.1204C10.5161 12.1204 9.3125 13.324 9.3125 14.8087C9.3125 16.2935 10.5161 17.4971 12.0009 17.4971Z" fill="white"/>
<path d="M13.7888 18.4905C13.248 18.7542 12.641 18.9024 12 18.9024C11.359 18.9024 10.752 18.7542 10.2113 18.4905C8.50259 19.1958 7.29688 20.8796 7.29688 22.8399V23.0757H16.7032V22.8399C16.7032 20.8796 15.4975 19.1958 13.7888 18.4905Z" fill="white"/>
<path d="M13.4879 3.92857L12.005 0.924072H11.9956L10.5127 3.92857L7.19719 4.41031L7.19531 4.42043L9.59344 6.75804L9.02728 10.0588L9.03694 10.0647L12.0003 8.50676L14.9637 10.0647L14.9733 10.0588L14.4072 6.75804L16.8053 4.42043L16.8035 4.41031L13.4879 3.92857Z" fill="white"/>
<path d="M1.79836 12.3661L1.8052 12.3689L3.53119 11.0424L5.60231 11.7121L5.60789 11.7074L4.87945 9.65531L6.15684 7.89201L6.15455 7.88578L3.97697 7.94446L2.69405 6.18384L2.68805 6.18492L2.07089 8.27409L9.375e-05 8.95007L0 8.95673L1.79541 10.1887L1.79836 12.3661Z" fill="white"/>
<path d="M18.3927 11.7074L18.3983 11.7121L20.4694 11.0424L22.1954 12.3689L22.2022 12.3661L22.2052 10.1887L24.0006 8.95673L24.0005 8.95007L21.9297 8.27409L21.3125 6.18492L21.3065 6.18384L20.0236 7.94446L17.846 7.88578L17.8438 7.89201L19.1211 9.65531L18.3927 11.7074Z" fill="white"/>
</g>
<defs>
<clipPath id="clip0_2302_3523">
<rect width="24" height="24" fill="white"/>
</clipPath>
</defs>
</svg>
