<svg width="24" height="24" viewBox="0 0 24 24" fill="none" xmlns="http://www.w3.org/2000/svg">
<g clip-path="url(#clip0_2302_3539)">
<path d="M3.82227 20.8092C5.22634 22.115 6.89054 23.0494 8.69503 23.5623C7.58593 22.17 6.85928 20.2666 6.41549 18.543C5.43287 19.1541 4.55655 19.9208 3.82227 20.8092Z" fill="white"/>
<path d="M6.41377 5.46334C6.85515 3.74676 7.58109 1.83596 8.69501 0.4375C6.88547 0.951864 5.21712 1.89003 3.81055 3.20152C4.53766 4.07996 5.4129 4.84578 6.41377 5.46334Z" fill="white"/>
<path d="M11.2927 23.8824V16.9736C10.0219 17.0577 8.8116 17.3663 7.70117 17.8606C7.94975 18.8981 8.26621 19.8585 8.64585 20.7127C9.39644 22.4014 10.3328 23.5108 11.2927 23.8824Z" fill="white"/>
<path d="M7.05148 11.8008C7.04083 13.3394 7.15166 14.9097 7.41174 16.4387C8.39281 16.0339 9.42814 15.7606 10.4961 15.6282L7.05148 11.8008Z" fill="white"/>
<path d="M12.707 0.117188V6.1215C13.8087 5.47589 15.1901 5.47457 16.294 6.12013C16.0461 5.0899 15.7312 4.13589 15.3539 3.28691C14.6033 1.5982 13.6668 0.488712 12.707 0.117188Z" fill="white"/>
<path d="M16.6482 9.198C16.6482 8.01243 15.6884 7.05125 14.502 7.05125C13.929 7.05125 13.3901 7.27456 12.9848 7.68008L12 8.66487L11.0153 7.68017C10.1767 6.84128 8.81964 6.84072 7.98066 7.68008C7.16223 8.49855 7.1488 9.79557 7.90274 10.6332L12 15.1858L16.0972 10.6332C16.4525 10.2385 16.6482 9.72877 16.6482 9.198Z" fill="white"/>
<path d="M7.70508 6.12013C8.80721 5.47561 10.1887 5.4749 11.292 6.1215V0.117188C10.3322 0.488712 9.39573 1.5982 8.64518 3.28691C8.26781 4.13589 7.95295 5.08994 7.70508 6.12013Z" fill="white"/>
<path d="M6.09115 17.082C5.83258 15.7039 5.6805 14.2287 5.64439 12.707H0C0.150901 15.3261 1.13848 17.7866 2.8344 19.7783C3.77974 18.668 4.88611 17.7642 6.09115 17.082Z" fill="white"/>
<path d="M18.3549 12.707C18.3189 14.2286 18.1668 15.7039 17.9082 17.082C19.113 17.7641 20.2194 18.6678 21.1649 19.7783C22.8609 17.7866 23.8485 15.3261 23.9994 12.707H18.3549Z" fill="white"/>
<path d="M5.64439 11.2924C5.6805 9.76952 5.83281 8.29299 6.09181 6.91404C4.85401 6.2146 3.75169 5.30288 2.83393 4.22168C1.13829 6.21333 0.150901 8.67361 0 11.2924H5.64439Z" fill="white"/>
<path d="M17.9082 6.91404C18.1672 8.29299 18.3196 9.76952 18.3556 11.2924H24C23.8491 8.67361 22.8617 6.21333 21.1661 4.22168C20.2483 5.30288 19.146 6.2146 17.9082 6.91404Z" fill="white"/>
<path d="M16.9485 11.8008L13.5039 15.6281C14.5719 15.7606 15.6073 16.0339 16.5883 16.4387C16.8483 14.9096 16.9592 13.3394 16.9485 11.8008Z" fill="white"/>
<path d="M12.707 23.8824C13.6668 23.5108 14.6033 22.4014 15.3539 20.7127C15.7335 19.8585 16.05 18.8981 16.2985 17.8606C15.1881 17.3663 13.9778 17.0577 12.707 16.9736V23.8824Z" fill="white"/>
<path d="M20.1891 3.20152C18.7826 1.89003 17.1141 0.951864 15.3047 0.4375C16.4185 1.83587 17.1444 3.74657 17.5859 5.46334C18.5868 4.84583 19.462 4.08001 20.1891 3.20152Z" fill="white"/>
<path d="M20.1775 20.8092C19.4432 19.9207 18.5669 19.1541 17.5842 18.543C17.1404 20.2667 16.4138 22.17 15.3047 23.5623C17.1092 23.0493 18.7734 22.115 20.1775 20.8092Z" fill="white"/>
</g>
<defs>
<clipPath id="clip0_2302_3539">
<rect width="24" height="24" fill="white"/>
</clipPath>
</defs>
</svg>
