<svg width="24" height="24" viewBox="0 0 24 24" fill="none" xmlns="http://www.w3.org/2000/svg">
<g clip-path="url(#clip0_2302_3561)">
<path d="M10.6348 22.635C10.6348 23.3878 11.247 24 11.9998 24C12.7526 24 13.3648 23.3878 13.3648 22.635V22.0781H10.6348V22.635Z" fill="white"/>
<path d="M9.41797 18.5059H14.5817V20.6715H9.41797V18.5059Z" fill="white"/>
<path d="M11.9991 5.20312C8.5632 5.20312 5.76758 7.99875 5.76758 11.4347C5.76758 13.7306 7.0243 15.8339 9.04789 16.9242L9.37367 17.1H14.6246L14.9504 16.9242C16.9735 15.8339 18.2307 13.7306 18.2307 11.4347C18.2307 7.99875 15.4351 5.20312 11.9991 5.20312ZM11.0401 13.8891L8.92602 11.7745L9.92023 10.7803L11.0401 11.9002L14.078 8.86219L15.0723 9.85687L11.0401 13.8891Z" fill="white"/>
<path d="M11.2969 0H12.7031V3.04688H11.2969V0Z" fill="white"/>
<path d="M17.584 5.07129L19.7381 2.91715L20.7323 3.91137L18.5782 6.06551L17.584 5.07129Z" fill="white"/>
<path d="M20.6035 10.9473H23.6504V12.3535H20.6035V10.9473Z" fill="white"/>
<path d="M17.582 18.2305L18.5763 17.2362L20.7304 19.3904L19.7362 20.3846L17.582 18.2305Z" fill="white"/>
<path d="M3.26172 19.3896L5.41586 17.2355L6.41008 18.2297L4.25594 20.3839L3.26172 19.3896Z" fill="white"/>
<path d="M0.349609 10.9473H3.39648V12.3535H0.349609V10.9473Z" fill="white"/>
<path d="M3.26367 3.90918L4.25789 2.91496L6.41203 5.0691L5.41781 6.06332L3.26367 3.90918Z" fill="white"/>
</g>
<defs>
<clipPath id="clip0_2302_3561">
<rect width="24" height="24" fill="white"/>
</clipPath>
</defs>
</svg>
